<?xml version="1.0" encoding="utf-8"?>
<!-- Generator: Adobe Illustrator 27.3.1, SVG Export Plug-In . SVG Version: 6.00 Build 0)  -->
<svg version="1.1" id="Calque_1" xmlns="http://www.w3.org/2000/svg" xmlns:xlink="http://www.w3.org/1999/xlink" x="0px" y="0px"
	 viewBox="0 0 400 400" style="enable-background:new 0 0 400 400;" xml:space="preserve">
<style type="text/css">
	.st0{fill:#ED6D56;}
</style>
<g>
	<g>
		<path class="st0" d="M252.8,214.1c-1.4,8.4-4.7,16.3-9.5,23l41,41c14.1-8.8,32.8-7,45,5.2c14.3,14.3,14.3,37.4,0,51.7
			c-14.3,14.3-37.4,14.3-51.7,0c-12.2-12.2-14-30.9-5.2-45l-41-41c-6.7,4.8-14.5,8.1-23,9.5v58c16.1,3.8,28.1,18.3,28.1,35.6
			c0,20.2-16.4,36.6-36.6,36.6s-36.6-16.4-36.6-36.6c0-17.3,12-31.8,28.1-35.6v-58c-8.4-1.4-16.3-4.7-23-9.5l-41,41
			c8.8,14.1,7,32.8-5.2,45c-14.3,14.3-37.4,14.3-51.7,0c-14.3-14.3-14.3-37.4,0-51.7c12.2-12.2,30.9-14,45-5.2l41-41
			c-4.8-6.7-8.1-14.5-9.5-23h-29.8c-3.8,16.1-18.3,28.1-35.6,28.1c-20.2,0-36.6-16.4-36.6-36.6c0-20.2,16.4-36.6,36.6-36.6
			c17.3,0,31.8,12,35.6,28.1h29.8c1.4-8.4,4.7-16.3,9.5-23l-35.3-35.3c-14.1,8.8-32.8,7-45-5.2C62,119.4,62,96.3,76.3,82
			c14.3-14.3,37.4-14.3,51.7,0c12.2,12.2,14,30.9,5.2,45l35.3,35.3c6.7-4.8,14.5-8.1,23-9.5v-46.7c-16.1-3.8-28.1-18.3-28.1-35.6
			c0-20.2,16.4-36.6,36.6-36.6s36.6,16.4,36.6,36.6c0,17.3-12,31.8-28.1,35.6v46.7c9.8,1.5,18.8,5.8,26,12l37.9-37.9
			c-8.8-14.1-7-32.8,5.2-45c14.3-14.3,37.4-14.3,51.7,0c14.3,14.3,14.3,37.4,0,51.7c-12.2,12.2-30.9,14-45,5.2l-38.7,38.7
			c3.6,5.9,6.1,12.5,7.2,19.6h29.8c3.8-16.1,18.3-28.1,35.6-28.1c20.2,0,36.6,16.4,36.6,36.6c0,20.2-16.4,36.6-36.6,36.6
			c-17.3,0-31.8-12-35.6-28.1H252.8z"/>
	</g>
	<circle class="st0" cx="22.8" cy="174.7" r="16.9"/>
	<circle class="st0" cx="377.2" cy="174.7" r="16.9"/>
	<circle class="st0" cx="22.8" cy="236.6" r="16.9"/>
	<circle class="st0" cx="377.2" cy="236.6" r="16.9"/>
	<circle class="st0" cx="264.7" cy="371.6" r="16.9"/>
	<circle class="st0" cx="138.1" cy="28.4" r="16.9"/>
	<circle class="st0" cx="264.7" cy="28.4" r="16.9"/>
	<circle class="st0" cx="138.1" cy="371.6" r="16.9"/>
</g>
</svg>
