<?xml version="1.0" encoding="utf-8"?>
<!-- Generator: Adobe Illustrator 27.3.1, SVG Export Plug-In . SVG Version: 6.00 Build 0)  -->
<svg version="1.1" id="Calque_1" xmlns="http://www.w3.org/2000/svg" xmlns:xlink="http://www.w3.org/1999/xlink" x="0px" y="0px"
	 viewBox="0 0 100 100" style="enable-background:new 0 0 100 100;" xml:space="preserve">
<style type="text/css">
	.st0{fill:#ED6D56;}
</style>
<g>
	<g>
		<path class="st0" d="M63,53.5c-0.3,2.1-1.2,4-2.3,5.7l10.1,10.1c3.5-2.2,8.1-1.7,11.1,1.3c3.5,3.5,3.5,9.2,0,12.8
			c-3.5,3.5-9.2,3.5-12.8,0c-3-3-3.5-7.6-1.3-11.1L57.7,62.1c-1.7,1.2-3.6,2-5.7,2.3v14.3c4,0.9,6.9,4.5,6.9,8.8c0,5-4,9-9,9
			s-9-4-9-9c0-4.3,3-7.8,6.9-8.8V64.4c-2.1-0.3-4-1.2-5.7-2.3L32.1,72.2c2.2,3.5,1.7,8.1-1.3,11.1c-3.5,3.5-9.2,3.5-12.8,0
			c-3.5-3.5-3.5-9.2,0-12.8c3-3,7.6-3.5,11.1-1.3l10.1-10.1c-1.2-1.7-2-3.6-2.3-5.7h-7.3c-0.9,4-4.5,6.9-8.8,6.9c-5,0-9-4-9-9
			s4-9,9-9c4.3,0,7.8,3,8.8,6.9h7.3c0.3-2.1,1.2-4,2.3-5.7l-8.7-8.7c-3.5,2.2-8.1,1.7-11.1-1.3c-3.5-3.5-3.5-9.2,0-12.7
			s9.2-3.5,12.8,0c3,3,3.5,7.6,1.3,11.1l8.7,8.7c1.7-1.2,3.6-2,5.7-2.3V26.8c-4-0.9-6.9-4.5-6.9-8.8c0-5,4-9,9-9s9,4,9,9
			c0,4.3-3,7.8-6.9,8.8v11.5c2.4,0.4,4.6,1.4,6.4,3l9.3-9.3c-2.2-3.5-1.7-8.1,1.3-11.1c3.5-3.5,9.2-3.5,12.8,0
			c3.5,3.5,3.5,9.2,0,12.8c-3,3-7.6,3.5-11.1,1.3l-9.5,9.5c0.9,1.5,1.5,3.1,1.8,4.8h7.3c0.9-4,4.5-6.9,8.8-6.9c5,0,9,4,9,9s-4,9-9,9
			c-4.3,0-7.8-3-8.8-6.9H63z"/>
	</g>
	<circle class="st0" cx="6.3" cy="43.7" r="4.2"/>
	<circle class="st0" cx="93.7" cy="43.7" r="4.2"/>
	<circle class="st0" cx="6.3" cy="59" r="4.2"/>
	<circle class="st0" cx="93.7" cy="59" r="4.2"/>
	<circle class="st0" cx="66" cy="92.3" r="4.2"/>
	<circle class="st0" cx="34.7" cy="7.7" r="4.2"/>
	<circle class="st0" cx="66" cy="7.7" r="4.2"/>
	<circle class="st0" cx="34.7" cy="92.3" r="4.2"/>
</g>
</svg>
